<svg viewBox="-0.5 -0.5 16 16" fill="none" xmlns="http://www.w3.org/2000/svg" id="Group--Streamline-Iconoir" height="16" width="16">
  <desc>
    Group Streamline Icon: https://streamlinehq.com
  </desc>
  <path d="M0.619125 12.817v-0.6255c0 -2.4183125 1.9604374999999998 -4.37875 4.37875 -4.37875h0c2.4183125 0 4.37875 1.9604374999999998 4.37875 4.37875v0.6255" stroke="#000000" stroke-linecap="round" stroke-width="1"></path>
  <path d="M8.1255 9.063812500000001h0c0 -1.7273125 1.4003750000000001 -3.127625 3.1276875 -3.127625h0c1.7273749999999999 0 3.1276875 1.4003125 3.1276875 3.127625v0.31281249999999994" stroke="#000000" stroke-linecap="round" stroke-width="1"></path>
  <path d="M4.997875 7.81275C6.37975 7.81275 7.5 6.6925 7.5 5.310625c0 -1.381875 -1.12025 -2.502125 -2.502125 -2.502125 -1.381875 0 -2.502125 1.12025 -2.502125 2.502125 0 1.381875 1.12025 2.502125 2.502125 2.502125Z" stroke="#000000" stroke-linecap="round" stroke-linejoin="round" stroke-width="1"></path>
  <path d="M11.2531875 5.9361875c1.0364375000000001 0 1.8766250000000002 -0.8401875000000001 1.8766250000000002 -1.8766250000000002s-0.8401875000000001 -1.8765625 -1.8766250000000002 -1.8765625 -1.8765625 0.8401875000000001 -1.8765625 1.8765625 0.840125 1.8766250000000002 1.8765625 1.8766250000000002Z" stroke="#000000" stroke-linecap="round" stroke-linejoin="round" stroke-width="1"></path>
</svg>