<?xml version="1.0" standalone="no"?><!DOCTYPE svg PUBLIC "-//W3C//DTD SVG 1.1//EN" "http://www.w3.org/Graphics/SVG/1.1/DTD/svg11.dtd"><svg t="1755584769631" class="icon" viewBox="0 0 1024 1024" version="1.1" xmlns="http://www.w3.org/2000/svg" p-id="4886" xmlns:xlink="http://www.w3.org/1999/xlink" width="200" height="200"><path d="M956.8 390.4c0-12.8-6.4-22.4-19.2-28.8l-400-176c-22.4-9.6-48-9.6-67.2 0l-403.2 176C54.4 368 48 377.6 48 390.4s6.4 22.4 19.2 28.8l400 176c9.6 6.4 22.4 6.4 35.2 6.4 12.8 0 22.4-3.2 35.2-6.4l387.2-169.6v233.6c0 9.6 6.4 16 16 16s16-6.4 16-16V390.4z m-435.2 176c-12.8 6.4-28.8 6.4-41.6 0l-400-176 400-176c6.4-3.2 12.8-3.2 19.2-3.2s12.8 0 19.2 3.2l400 176-396.8 176z" p-id="4887"></path><path d="M454.4 646.4l-272-128v316.8c0 44.8 35.2 80 80 80h480c44.8 0 80-35.2 80-80V518.4l-272 128c-32 16-64 16-96 0z m336-76.8v265.6c0 25.6-22.4 48-48 48h-480c-25.6 0-48-22.4-48-48V569.6l227.2 108.8c38.4 19.2 83.2 19.2 124.8 0l224-108.8z" p-id="4888"></path></svg>